<svg width="22" height="20" viewBox="0 0 22 20" fill="none" xmlns="http://www.w3.org/2000/svg">
<path d="M1.25 10.76C1.25 12.36 2.373 13.754 3.957 13.987C5.025 14.144 6.105 14.266 7.195 14.351C7.661 14.388 8.088 14.632 8.348 15.022L11 19L13.652 15.022C13.912 14.632 14.339 14.388 14.805 14.352C15.895 14.266 16.975 14.144 18.043 13.987C19.627 13.754 20.75 12.361 20.75 10.759V4.741C20.75 3.139 19.627 1.746 18.043 1.513C15.711 1.17072 13.357 0.99926 11 1C8.608 1 6.256 1.175 3.957 1.513C2.373 1.746 1.25 3.14 1.25 4.741V10.759V10.76Z" stroke="#364545" stroke-width="1.5" stroke-linecap="round" stroke-linejoin="round"/>
</svg>
